<svg xmlns="http://www.w3.org/2000/svg" viewBox="0 0 1000 1000" xml:space="preserve"><path fill="#fefefe" d="M935.6 527.2H581.7c-30.1 0-54.4 24.4-54.4 54.4v353.9c0 30.1 24.4 54.4 54.4 54.4h353.9c30.1 0 54.4-24.4 54.4-54.4V581.7c0-30.1-24.4-54.5-54.4-54.5zm0 408.4H581.7V581.7h353.9v353.9zM418.3 527.2H64.4c-30.1 0-54.4 24.4-54.4 54.4v353.9c0 30.1 24.4 54.4 54.4 54.4h353.9c30.1 0 54.4-24.4 54.4-54.4V581.7c.1-30.1-24.3-54.5-54.4-54.5zm0 408.4H64.4V581.7h353.9v353.9zM935.6 10H581.7c-30.1 0-54.4 24.4-54.4 54.4v353.9c0 30.1 24.4 54.4 54.4 54.4h353.9c30.1 0 54.4-24.4 54.4-54.4V64.4c0-30-24.4-54.4-54.4-54.4zm0 408.3H581.7V64.4h353.9v353.9zM418.3 10H64.4C34.4 10 10 34.4 10 64.4v353.9c0 30.1 24.4 54.4 54.4 54.4h353.9c30.1 0 54.4-24.4 54.4-54.4V64.4c.1-30-24.3-54.4-54.4-54.4zm0 408.3H64.4V64.4h353.9v353.9z"/></svg>